<svg width="32" height="33" viewBox="0 0 32 33" fill="none" xmlns="http://www.w3.org/2000/svg">
<path d="M24.92 15.8733C24.16 15.6733 23.2666 15.5667 22.1999 15.5667C20.7199 15.5667 20.1733 15.9267 19.4133 16.5C19.3733 16.5267 19.3333 16.5667 19.2933 16.6067L18.0266 17.9533C16.9733 19.0867 15.0399 19.0867 13.9733 17.9533L12.7066 16.62C12.6666 16.5667 12.6266 16.5267 12.5866 16.5C11.8133 15.9267 11.2666 15.5667 9.79995 15.5667C8.73328 15.5667 7.83995 15.66 7.07995 15.8733C3.90662 16.7267 3.90662 19.2467 3.90662 21.46V22.7C3.90662 26.0467 3.90662 29.8333 11.0399 29.8333H20.9599C25.6933 29.8333 28.0933 27.4333 28.0933 22.7V21.46C28.0933 19.2467 28.0933 16.7267 24.92 15.8733Z" fill="#0DFFB6"/>
<path d="M19.7201 3.16666H12.2801C6.38672 3.16666 6.38672 6.29999 6.38672 9.05999V13.9933C6.44005 13.9667 6.50672 13.9533 6.56005 13.94C7.49339 13.6867 8.54672 13.5667 9.80005 13.5667C11.8534 13.5667 12.8267 14.1667 13.7867 14.9C13.9201 14.9933 14.0534 15.1133 14.1734 15.2467L15.4267 16.5667C15.5601 16.7133 15.7734 16.7933 16.0001 16.7933C16.2267 16.7933 16.4401 16.7133 16.5601 16.58L17.8401 15.2333C17.9467 15.1267 18.0667 15.0067 18.2001 14.9133C19.1867 14.1667 20.1467 13.5667 22.2001 13.5667C23.4534 13.5667 24.5067 13.6867 25.4401 13.94C25.4934 13.9533 25.5601 13.9667 25.6134 13.9933V9.05999C25.6134 6.29999 25.6134 3.16666 19.7201 3.16666ZM18.0667 11.8333H13.9334C13.4267 11.8333 13.0001 11.4067 13.0001 10.9C13.0001 10.38 13.4267 9.96666 13.9334 9.96666H18.0667C18.5734 9.96666 19.0001 10.38 19.0001 10.9C19.0001 11.4067 18.5734 11.8333 18.0667 11.8333ZM19.1067 8.11332H12.8934C12.3867 8.11332 11.9734 7.68666 11.9734 7.17999C11.9734 6.65999 12.3867 6.24666 12.8934 6.24666H19.1067C19.6134 6.24666 20.0267 6.65999 20.0267 7.17999C20.0267 7.68666 19.6134 8.11332 19.1067 8.11332Z" fill="#0DFFB6"/>
</svg>
