<svg width="36" height="37" viewBox="0 0 36 37" fill="none" xmlns="http://www.w3.org/2000/svg">
<rect y="0.5" width="36" height="36" rx="18" fill="#0DFFB6"/>
<rect x="0.5" y="1" width="35" height="35" rx="17.5" stroke="white" stroke-opacity="0.25"/>
<path d="M18.6667 25H16V17H18.6667V18.3333C18.9474 17.9762 19.3037 17.6856 19.71 17.4824C20.1163 17.2792 20.5625 17.1684 21.0167 17.158C21.8109 17.1624 22.571 17.4816 23.1303 18.0456C23.6895 18.6096 24.0023 19.3724 24 20.1667V25H21.3333V20.5C21.2818 20.1397 21.1018 19.8102 20.8265 19.5721C20.5513 19.3339 20.1993 19.2032 19.8353 19.204C19.6724 19.2091 19.5123 19.2472 19.3644 19.3157C19.2166 19.3843 19.0841 19.482 18.975 19.6031C18.8658 19.7241 18.7822 19.866 18.7293 20.0201C18.6763 20.1742 18.655 20.3374 18.6667 20.5V25ZM14.6667 25H12V17H14.6667V25ZM13.3333 15.6667C12.9797 15.6667 12.6406 15.5262 12.3905 15.2761C12.1405 15.0261 12 14.687 12 14.3333C12 13.9797 12.1405 13.6406 12.3905 13.3905C12.6406 13.1405 12.9797 13 13.3333 13C13.687 13 14.0261 13.1405 14.2761 13.3905C14.5262 13.6406 14.6667 13.9797 14.6667 14.3333C14.6667 14.687 14.5262 15.0261 14.2761 15.2761C14.0261 15.5262 13.687 15.6667 13.3333 15.6667Z" fill="#2D432C"/>
</svg>
