<svg width="38" height="37" viewBox="0 0 38 37" fill="none" xmlns="http://www.w3.org/2000/svg">
<rect y="0.5" width="38" height="36" rx="18" fill="#0DFFB6"/>
<rect x="0.5" y="1" width="37" height="35" rx="17.5" stroke="white" stroke-opacity="0.25"/>
<path d="M25.9733 15C25.46 15.2333 24.9067 15.3867 24.3333 15.46C24.92 15.1067 25.3733 14.5467 25.5867 13.8733C25.0333 14.2067 24.42 14.44 23.7733 14.5733C23.2467 14 22.5067 13.6667 21.6667 13.6667C20.1 13.6667 18.82 14.9467 18.82 16.5267C18.82 16.7533 18.8467 16.9733 18.8933 17.18C16.52 17.06 14.4067 15.92 13 14.1933C12.7533 14.6133 12.6133 15.1067 12.6133 15.6267C12.6133 16.62 13.1133 17.5 13.8867 18C13.4133 18 12.9733 17.8667 12.5867 17.6667V17.6867C12.5867 19.0733 13.5733 20.2333 14.88 20.4933C14.4605 20.6081 14.0201 20.6241 13.5933 20.54C13.7744 21.1083 14.129 21.6056 14.6074 21.9619C15.0857 22.3183 15.6636 22.5158 16.26 22.5267C15.2491 23.3269 13.996 23.7595 12.7067 23.7533C12.48 23.7533 12.2533 23.74 12.0267 23.7133C13.2933 24.5267 14.8 25 16.4133 25C21.6667 25 24.5533 20.64 24.5533 16.86C24.5533 16.7333 24.5533 16.6133 24.5467 16.4867C25.1067 16.0867 25.5867 15.58 25.9733 15Z" fill="#2D432C"/>
</svg>
